:SAMPLES-PER-SECOND 30
:FRAME-RANGE 1-3549
:FULLY-SPECIFIED
:DEGREES
2995
root  -39.8137 38.6717 45.0288 -163.495 83.9853 -169.36
RightUpLeg  -10.6168 -1.7701 -4.32059
RightLeg  21.2448 0.678895 -0.236073
RightFoot  -15.0512 0.125952 7.03676
RightToes  1.218e-010 1.26228e-014 -6.01869e-014
Spine  -1.64117 2.11006 9.60818
Spine1  6.96039 1.93447 -0.06404
HEad  -1.66316 43.936 -13.8588
LeftShoulder1  0.994631 -0.31276 -21.3584
LeftArm  5.92477 2.12104 -53.4903
LeftForeArm  40.1257 -4.40428 -13.0572
LeftHand  -0.0313852 5.14502 3.11658
RightShoulder  1.79873 2.3255 25.9134
RightArm  -21.8329 5.20042 34.473
RightForeArm  67.7592 -5.69772 5.36928
RightHand  0.268694 -7.41802 -16.3877
LeftUpLeg  -30.5147 4.13265 -0.637944
LeftLeg  43.1153 -0.0735393 0.318533
LeftFoot  -6.23992 0.187633 -3.37098
LeftToes  -1.43952e-010 7.51141e-011 -1.22592e-011
2996
root  -38.8485 38.7664 45.0243 -172.433 81.0351 -178.554
RightUpLeg  -7.70837 -4.07646 -4.90654
RightLeg  19.4016 -0.0701935 -0.608691
RightFoot  -15.8451 0.171945 7.10014
RightToes  1.218e-010 1.26228e-014 -6.01869e-014
Spine  -2.08687 2.29354 9.05112
Spine1  6.946 2.11341 -0.583091
HEad  -0.722001 44.7821 -13.2951
LeftShoulder1  0.992442 -0.323208 -21.2098
LeftArm  5.43223 1.88668 -53.3616
LeftForeArm  40.5641 -4.06137 -13.0626
LeftHand  -0.0288361 5.05089 3.46771
RightShoulder  1.81804 2.42643 25.6802
RightArm  -20.4206 7.01349 36.0352
RightForeArm  67.424 -5.82804 6.08865
RightHand  0.266817 -7.35971 -16.7241
LeftUpLeg  -31.5122 5.61498 -2.30966
LeftLeg  33.5854 3.4879 2.84084
LeftFoot  -4.4007 0.146663 -1.98232
LeftToes  -1.43952e-010 7.51141e-011 -1.22592e-011
2997
root  -37.8826 38.8205 44.9577 -175.591 78.7266 177.968
RightUpLeg  -4.99266 -5.13501 -5.27362
RightLeg  17.5227 -1.37016 -1.02086
RightFoot  -16.4556 0.226324 7.5599
RightToes  1.218e-010 1.26228e-014 -6.01869e-014
Spine  -2.69535 2.551 8.6434
Spine1  7.31321 2.42608 -1.19535
HEad  -0.518506 46.2297 -13.2823
LeftShoulder1  0.97535 -0.260549 -21.2108
LeftArm  4.58808 1.52927 -53.1965
LeftForeArm  40.9449 -3.18757 -13.1428
LeftHand  -0.0346744 5.00367 3.20403
RightShoulder  1.85087 2.65801 24.9714
RightArm  -19.2326 9.30244 38.1532
RightForeArm  67.5031 -5.91395 6.6354
RightHand  0.27111 -7.39417 -16.6914
LeftUpLeg  -31.7029 7.60976 -4.11003
LeftLeg  23.2279 7.24477 3.72259
LeftFoot  -2.29336 0.172866 -2.01065
LeftToes  -1.43952e-010 7.51141e-011 -1.22592e-011
2998
root  -36.8939 38.8179 44.8087 -176.482 76.8279 176.865
RightUpLeg  -2.31718 -5.58279 -5.40122
RightLeg  15.8441 -2.76445 -1.33953
RightFoot  -16.9689 0.282185 8.0744
RightToes  1.218e-010 1.26228e-014 -6.01869e-014
Spine  -3.27862 2.76339 8.41057
Spine1  7.80094 2.7539 -1.80252
HEad  -0.0887689 47.6883 -12.8068
LeftShoulder1  0.972284 -0.24854 -21.2173
LeftArm  3.3308 1.31198 -53.1385
LeftForeArm  41.9844 -1.70471 -13.2281
LeftHand  -0.0313532 5.14833 3.15547
RightShoulder  1.90399 2.9606 24.2936
RightArm  -18.4624 12.0533 40.4101
RightForeArm  69.1752 -5.89449 6.90993
RightHand  0.257289 -7.32731 -16.456
LeftUpLeg  -31.0318 7.16124 -4.42068
LeftLeg  13.1723 13.065 2.93035
LeftFoot  -2.19865 0.212627 -2.49425
LeftToes  -1.43952e-010 7.51141e-011 -1.22592e-011
2999
root  -35.9022 38.7532 44.5667 -176.21 75.1626 177.018
RightUpLeg  0.0430522 -6.13631 -5.47391
RightLeg  14.942 -3.67234 -1.37838
RightFoot  -17.4797 0.347238 8.67603
RightToes  1.218e-010 1.26228e-014 -6.01869e-014
Spine  -3.68647 2.8482 8.38738
Spine1  8.20269 2.97026 -2.31966
HEad  0.309828 48.661 -12.315
LeftShoulder1  0.959508 -0.192377 -21.2958
LeftArm  2.60383 1.2653 -53.1227
LeftForeArm  42.9279 -0.229656 -13.3255
LeftHand  -0.0293442 5.23876 3.14234
RightShoulder  1.99608 3.40681 23.6201
RightArm  -16.5991 14.9044 42.5339
RightForeArm  70.2453 -5.99558 7.79613
RightHand  0.284495 -7.5336 -16.3713
LeftUpLeg  -29.7028 1.09432 -1.24956
LeftLeg  3.64061 24.2594 0.312166
LeftFoot  -3.11893 0.171834 -2.12989
LeftToes  -1.43952e-010 7.51141e-011 -1.22592e-011
3000
root  -34.8402 38.6271 44.2417 -175.296 73.7217 178.1
RightUpLeg  2.48573 -6.32678 -5.31312
RightLeg  14.6553 -4.41757 -1.49834
RightFoot  -18.0265 0.441945 9.64442
RightToes  1.218e-010 1.26228e-014 -6.01869e-014
Spine  -4.13458 2.96627 8.30698
Spine1  8.79987 3.11667 -2.39326
HEad  0.0182684 49.1086 -12.4491
LeftShoulder1  1.00138 -0.321115 -21.4893
LeftArm  3.18899 1.55238 -52.9874
LeftForeArm  44.6818 0.0876416 -13.4887
LeftHand  -0.0245151 5.52013 2.51767
RightShoulder  2.06058 3.77381 22.9597
RightArm  -14.6358 17.6943 44.9601
RightForeArm  73.6109 -5.99371 8.62606
RightHand  0.374236 -8.22617 -16.11
LeftUpLeg  -28.6561 -0.972685 -1.09085
LeftLeg  -3.92718 29.3278 -0.664139
LeftFoot  -3.93947 0.120101 -1.49048
LeftToes  -1.43952e-010 7.51141e-011 -1.22592e-011
3001
root  -33.6989 38.4032 43.8539 -173.728 72.3069 179.915
RightUpLeg  4.62928 -6.61122 -4.96141
RightLeg  15.4153 -4.65905 -1.57235
RightFoot  -18.783 0.601856 11.1876
RightToes  1.218e-010 1.26228e-014 -6.01869e-014
Spine  -4.47759 3.12928 8.34519
Spine1  9.10561 3.27097 -2.43304
HEad  -0.748738 49.1282 -12.379
LeftShoulder1  1.03379 -0.464207 -21.2893
LeftArm  4.19482 2.15411 -53.0777
LeftForeArm  46.8177 -0.529978 -13.5566
LeftHand  -0.0222046 6.10959 1.50456
RightShoulder  2.13017 4.04879 22.8147
RightArm  -12.2492 20.0922 47.1688
RightForeArm  77.6262 -5.98792 9.64288
RightHand  0.443991 -8.95764 -15.1755
LeftUpLeg  -28.7181 -1.4516 -0.981096
LeftLeg  -5.74762 32.494 -0.978186
LeftFoot  -5.16209 0.15528 -2.30223
LeftToes  -1.43952e-010 7.51141e-011 -1.22592e-011
